<svg xmlns="http://www.w3.org/2000/svg" viewBox="0 0 320 320" width="320" height="320">
  <title>Smech Labs logo -- white on black, for light GitHub theme</title>
  <rect x="0" y="0" width="320" height="320" fill="#000000" />
  <g fill="none" stroke="#ffffff" stroke-width="10" stroke-linejoin="round">
    <path fill="#ffffff" stroke="none" d="M 281.7,151.4 L 308.0,160.0 L 281.7,168.6 Z M 275.7,198.6 L 296.7,216.6 L 269.1,214.5 Z M 252.1,240.0 L 264.7,264.7 L 240.0,252.1 Z M 214.5,269.1 L 216.6,296.7 L 198.6,275.7 Z M 168.6,281.7 L 160.0,308.0 L 151.4,281.7 Z M 121.4,275.7 L 103.4,296.7 L 105.5,269.1 Z M 80.0,252.1 L 55.3,264.7 L 67.9,240.0 Z M 50.9,214.5 L 23.3,216.6 L 44.3,198.6 Z M 38.3,168.6 L 12.0,160.0 L 38.3,151.4 Z M 44.3,121.4 L 23.3,103.4 L 50.9,105.5 Z M 67.9,80.0 L 55.3,55.3 L 80.0,67.9 Z M 105.5,50.9 L 103.4,23.3 L 121.4,44.3 Z M 151.4,38.3 L 160.0,12.0 L 168.6,38.3 Z M 198.6,44.3 L 216.6,23.3 L 214.5,50.9 Z M 240.0,67.9 L 264.7,55.3 L 252.1,80.0 Z M 269.1,105.5 L 296.7,103.4 L 275.7,121.4 Z" />
    <circle cx="160" cy="160" r="118" />
  </g>
  <g fill="none" stroke="#ffffff" stroke-width="14" stroke-linecap="square" stroke-linejoin="round">
    <path d="M 148,118
             C 122,118 108,130 108,148
             C 108,166 124,172 142,176
             C 160,180 176,186 176,204
             C 176,222 162,234 136,234
             C 118,234 106,228 100,218" />
    <path d="M 140,118 L 168,118 L 156,138 L 176,138" />
    <path d="M 196,122 L 196,222 L 232,222" />
  </g>
</svg>
